<svg version="1.1" id="Layer_1" xmlns="http://www.w3.org/2000/svg" xmlns:xlink="http://www.w3.org/1999/xlink" x="0px" y="0px"
	 viewBox="0 0 2122 2122" style="enable-background:new 0 0 2122 2122;" xml:space="preserve">
<g>
	<rect x="0" style="fill:#fff;" width="2121.32" height="2121.32"/>
	<g>
		<path style="fill:#0396FF;" d="M1719.409,1314.557c-64.453,193.735-364.856,347.836-172.587,219.657
			c-83.312,27.771-74.869,68.814-156.897,109.828h47.069c-15.69,0-39.224,7.844-54.913,7.844c7.844,0,15.69,7.845,15.69,7.845
			c0,45.056-0.004,0.004-39.225,39.224c-7.845,7.844-23.535,7.844-31.379,7.844c7.844,7.845,15.69,7.845,23.534,15.69
			c-26.475-33.984-61.411,31.125-94.138,0c7.844,0,7.844,7.845,15.69,7.845c-7.845,0-7.845,7.844-15.69,7.844l7.844,7.845
			c-7.844,0-15.69,0-23.534-7.845h7.844c-31.314,15.657-51.729-12.505-31.379,7.845c-15.69,0-31.379,0-47.069-15.69h15.69
			c-15.69,0,0,7.844-7.845,15.69c0-23.535-15.69-7.845-23.535-7.845c7.845,7.845,7.845,15.69,23.535,15.69
			c-31.379,0-47.069-23.535-78.448-15.69c15.69,15.69,39.224,15.69,54.913,23.535c-16.54,20.424-84.687-37.618-54.913-7.844
			c-23.535,0-39.224-7.845-54.914-15.69c15.69,7.845,31.379,31.38,54.914,31.38c-23.535-7.845-47.07-31.38-78.449-31.38l15.69,15.69
			c-7.845-7.845-23.535-7.845-31.379-15.69c47.069,0,0,7.845,0,7.845c-7.845-7.845-15.69-15.69-31.379-15.69
			c52.765,52.765,0.622,4.234-23.535-7.845c7.845,7.845,15.69,23.535,23.535,31.38c-15.69-15.69-31.38-23.535-47.07-39.224
			l23.535,23.534c-54.777,0-29.636-36.609,15.69,31.38c-19.266-36.856-115.856-82.687-54.914-23.535
			c-19.747-19.747-15.69-18.249-15.69-7.845c-15.69-15.69-31.379-23.534-39.224-47.069c0,7.845,7.845,7.845,7.845,15.69
			c-18.562-18.562,0,3.098,0,7.845c-15.69-7.845-31.379-7.845-47.07-15.69l23.535,23.534
			c-140.852-64.314-263.635-156.732-345.174-282.416c15.689,39.225,54.914,70.604,47.069,125.518
			c-31.379-70.604-78.449-125.518-109.828-188.277c68.492,87.497,12.178-15.452-31.379-125.518
			c-10.402,10.402-7.845,15.966-7.845-23.535c0,76.176,10.04,76.091,39.224,149.053c-23.534-15.69-31.379-47.069-47.069-78.449
			c0,7.845-7.845,7.845-7.845,15.69c-7.242-28.968,7.845-15.738,7.845-125.518c-2.003,69.015-32.828-59.969-39.224,31.38
			c0-156.831,19.524-156.898,0-156.898c15.69-31.38,0-62.759,15.69-94.139c-7.844,7.844-7.844,23.535-15.69,31.379
			c15.69-133.363,62.759-274.57,156.897-376.554h-23.534c15.69-15.69,23.534-31.379,47.069-39.224c-7.845,0-7.845,7.844-15.69,7.844
			c11.206,0,12.801-4.956-15.689,23.535c39.224-39.224,86.293-70.604,109.827-117.673c-7.844,0-15.69,7.844-23.534,7.844
			c7.845-23.535,23.534-31.379,39.225-39.224c0,7.845,0,7.845-7.845,7.845c7.845-7.845,15.69-23.535,31.379-23.535
			c0,0-47.069,7.845,0,7.845c23.535-31.379,47.07-47.07,86.293-54.914c-7.845,0-15.69-7.845-23.534-7.845
			c185.368-16.437,205.455-169.917,635.435-31.379c-21.883-55.995,14.428-29.864,39.224,0c-10.597-17.902-4.964-8.785,0-23.535
			c28.324,49.665,82.03,63.548,125.517,94.139l-7.844-7.844c39.225,15.69,54.914,54.913,86.294,78.448
			c-14.664-16.53-21.869,7.321,0,15.69c112.446,30.564,232.958,379.011,172.587,533.452
			C1777.042,999.231,1774.353,1149.41,1719.409,1314.557z M401.47,1094.9v47.069c7.845-23.535-15.69-54.914,0-78.448
			C377.936,1087.055,408.806,1094.9,401.47,1094.9z M393.625,985.072c-15.69,23.535,15.69,39.224,0,62.759V985.072z
			 M370.091,1032.141c7.844,7.845,7.844,15.69,7.844,23.535c-15.69-23.535,0-47.069-7.844-70.604
			C399.236,985.072,370.091,1007.686,370.091,1032.141z M1240.872,1722.49c-7.845,0-7.845,7.845-15.69,7.845
			C1233.027,1730.335,1233.027,1722.49,1240.872,1722.49z M1013.37,357.482C1034.248,357.482,1034.332,357.482,1013.37,357.482
			L1013.37,357.482z M1750.789,1102.745c0-7.844,0-15.69,7.845-23.534C1750.789,1087.055,1750.789,1094.9,1750.789,1102.745z
			 M1178.113,357.482c-26.291,16.689-69.582-14.48-101.983-7.845C1139.647,349.637,1103.377,357.482,1178.113,357.482z
			 M1758.634,985.072c0,35.32,0-57.668,0-94.139V985.072z M1193.802,365.327C1214.681,365.327,1214.764,365.327,1193.802,365.327
			L1193.802,365.327z M440.695,1102.745c0,31.38,7.844,70.604,15.69,101.984c-7.845-23.535-7.845-54.914-7.845-78.449
			c5.556,38.425,75.706,196.035,15.69,117.673c46.884,95.828,99.496,212.149,188.278,274.571
			c-335.35-574.886-58.171-84.278,23.534,0c-15.69-23.535-31.379-31.379-15.69-70.604c0,49.181,37.564,34.24,54.914,86.293v-7.845
			c7.845,7.845,23.535,15.69,31.379,23.535c-23.534-7.844-15.69-31.379-31.379-47.069l7.845,7.844
			c-45.829-67.846-15.181-16.995-31.379-62.759c31.379,47.069,54.914,101.983,101.983,133.363
			c-15.689-23.534-23.535-54.914-39.224-78.448c39.224,23.534,54.914,70.604,94.139,86.294c0-7.845,0-7.845,7.844-7.845
			c-15.69-15.69-23.534-31.379-39.225-47.069c31.38,7.845,31.38,54.914,62.76,54.914c-15.69-15.69-31.379-39.225-47.069-54.914
			c135.857,135.857,86.294,88.873,86.294,70.604c7.844,7.845,15.69,7.845,23.534,15.69c-23.534-23.535-47.069-39.224-62.759-70.604
			c31.379,39.225,78.448,70.604,125.518,94.139c0-31.379-39.225-23.535-47.07-47.07c71.924,81.039,168.813,2.573,258.884,23.542
			c123.806-50.337,212.416-101.107,321.638-188.284c8.261-96.391,155.294-188.254,39.224-164.743
			c203.527-173.404,59.029-452.63-39.224-666.814c7.844,15.69,15.69,39.225,23.534,54.914
			C1266.706,287.284,716.461,294.902,495.609,820.329l-7.845-7.844C428.381,875.532,460.99,1146.641,440.695,1102.745z
			 M503.453,765.415c-7.844,7.845-7.844,23.535-15.69,31.38C489.478,796.795,503.453,776.76,503.453,765.415z M809.404,1675.421
			c23.535,0,23.535,23.535,31.379,31.379c-7.844-7.844-15.69-23.534-23.535-31.379
			C835.811,1693.983,814.15,1675.421,809.404,1675.421z M1750.789,867.399c11.28-48.116-16.168-86.547-23.535-125.518
			C1727.254,770.357,1740.845,826.777,1750.789,867.399z M1531.132,608.518c7.845-23.534-39.224-23.534-31.379-47.069
			C1499.753,584.984,1531.132,584.984,1531.132,608.518z M1633.115,1306.712c-7.844,15.69-23.534,31.379-23.534,47.069
			C1613.431,1353.781,1642.784,1335.717,1633.115,1306.712z M1688.03,702.656c0-62.759-31.379-109.828-70.604-149.053
			c0,51.358,23.535,20.838,23.535,39.224C1635.056,636.796,1693.091,635.545,1688.03,702.656z M887.852,435.931
			C866.975,435.931,866.891,435.931,887.852,435.931L887.852,435.931z M511.299,1385.16c0-7.844,0-15.69-7.845-15.69
			C503.453,1388.415,512.087,1385.16,511.299,1385.16z M1601.736,553.604c0,7.845,0,15.69,7.845,15.69
			C1609.581,564.679,1610.531,553.604,1601.736,553.604z"/>
		<path style="fill:#FFFFFF;" d="M1021.215,1800.939c23.535,0,31.379,23.535,47.069,31.379
			C1021.545,1845.667,1050.493,1791.343,1021.215,1800.939z"/>
		<path style="fill:#FFFFFF;" d="M699.575,1706.8v-31.379C716.474,1688.022,715.146,1694.643,699.575,1706.8z"/>
		<path style="fill:#FFFFFF;" d="M1531.132,1596.972c-7.844,0-23.535,15.69-23.535-7.844l-7.844,7.844
			C1507.597,1589.128,1515.443,1581.282,1531.132,1596.972z"/>
		<path style="fill:#FFFFFF;" d="M1648.805,1502.834c-7.844-7.845-7.844-15.69-23.534-15.69
			C1633.115,1487.144,1640.961,1479.299,1648.805,1502.834z"/>
		<path style="fill:#FFFFFF;" d="M778.025,326.102c7.844,7.845,7.844,15.69,15.689,23.535
			C793.714,336.847,791.324,326.102,778.025,326.102z"/>
		<path style="fill:#FFFFFF;" d="M1413.459,1691.111c-15.69,0-7.845-7.844-7.845-15.69
			C1405.614,1683.266,1413.459,1683.266,1413.459,1691.111z"/>
		<path style="fill:#FFFFFF;" d="M385.78,1220.419c0-7.845-7.845-15.69,7.845-15.69
			C383.743,1204.729,385.78,1201.581,385.78,1220.419z"/>
		<path style="fill:#FFFFFF;" d="M377.935,1204.729C377.935,1173.412,377.935,1173.286,377.935,1204.729L377.935,1204.729z"/>
		<path style="fill:#FFFFFF;" d="M1742.944,1134.125c0-7.845,7.845-7.845,7.845-15.69
			C1750.789,1137.808,1753.301,1134.125,1742.944,1134.125z"/>
		<path style="fill:#FFFFFF;" d="M872.162,286.878c0,7.845,7.845,7.845,7.845,15.69
			C870.594,293.154,872.162,296.757,872.162,286.878z"/>
		<path style="fill:#FFFFFF;" d="M1570.357,1549.903C1570.357,1570.781,1570.357,1570.864,1570.357,1549.903L1570.357,1549.903z"/>
		<path style="fill:#FFFFFF;" d="M1648.805,1502.834c7.845,0,7.845,7.844,15.69,7.844
			C1644.758,1490.941,1648.805,1492.418,1648.805,1502.834z"/>
		<path style="fill:#FFFFFF;" d="M1711.564,1408.695c0,7.845,7.844,7.845,7.844,15.69
			C1719.409,1416.54,1711.564,1416.54,1711.564,1408.695z"/>
		<path style="fill:#FFFFFF;" d="M581.902,483C602.78,483,602.864,483,581.902,483L581.902,483z"/>
		<path style="fill:#FFFFFF;" d="M621.127,451.62c7.844,0,7.844-7.845,15.69-7.845C627.403,453.19,631.006,451.62,621.127,451.62z"
			/>
		<path style="fill:#FFFFFF;" d="M1546.822,490.845c0,7.845,7.845,7.845,7.845,15.69
			C1535.912,506.534,1550.266,490.845,1546.822,490.845z"/>
		<path style="fill:#FFFFFF;" d="M1695.875,1408.695C1716.752,1408.695,1716.836,1408.695,1695.875,1408.695L1695.875,1408.695z"/>
		<path style="fill:#FFFFFF;" d="M1735.099,1424.385c-7.845,0-7.845-7.844-15.69-7.844
			C1719.409,1426.419,1735.904,1424.385,1735.099,1424.385z"/>
		<path style="fill:#FFFFFF;" d="M1672.34,1463.609c7.845,0,7.845,7.845,15.69,7.845
			C1678.615,1462.041,1682.219,1463.609,1672.34,1463.609z"/>
		<path style="fill:#FFFFFF;" d="M644.661,435.931c-7.844,0-7.844,7.845-15.69,7.845
			C636.817,443.776,636.817,435.931,644.661,435.931z"/>
		<path style="fill:#FFFFFF;" d="M605.437,1424.385c-50.09-3.614,45.843,3.646-23.534-31.379
			C583.923,1393.005,598.55,1417.498,605.437,1424.385z"/>
		<path style="fill:#FFFFFF;" d="M1484.063,1440.074c0,15.69-7.845,7.845-15.69,7.845
			C1468.374,1432.23,1476.218,1440.074,1484.063,1440.074z"/>
		<path style="fill:#FFFFFF;" d="M1656.65,883.089C1656.65,862.211,1656.65,862.128,1656.65,883.089L1656.65,883.089z"/>
		<path style="fill:#FFFFFF;" d="M503.453,781.106c0,7.844-7.844,7.844-7.844,15.69C495.609,788.95,503.453,788.95,503.453,781.106z
			"/>
		<path style="fill:#FFFFFF;" d="M495.609,796.795C495.609,817.672,495.609,817.756,495.609,796.795L495.609,796.795z"/>
		<path style="fill:#FFFFFF;" d="M479.919,828.175C479.919,807.297,479.919,807.213,479.919,828.175L479.919,828.175z"/>
		<path style="fill:#FFFFFF;" d="M1444.839,1408.695c7.845,0,7.845,7.845,15.69,7.845
			C1441.155,1416.54,1444.839,1419.052,1444.839,1408.695z"/>
		<path style="fill:#FFFFFF;" d="M801.559,1589.128c-7.845,0-7.845-7.845-15.69-7.845
			C793.714,1581.282,793.714,1589.128,801.559,1589.128z"/>
		<path style="fill:#FFFFFF;" d="M1162.423,1644.042c-15.69,15.69-54.914-31.379-62.759,7.844
			C1099.665,1611.613,1156.306,1685.85,1162.423,1644.042z"/>
		<path style="fill:#000;" d="M981.991,1644.042c-7.844,0-7.844-7.845-15.69-7.845
			C976.179,1636.197,972.575,1634.626,981.991,1644.042z"/>
	</g>
</g>
</svg>
